<svg xmlns="http://www.w3.org/2000/svg" width="176" height="48" viewBox="0 0 176 48" fill="none"><path d="M131.152 19.7089C131.145 13.7347 135.754 9.1183 141.735 9.11134C147.765 9.10437 152.416 13.7277 152.409 19.7158C152.402 25.7109 147.737 30.4317 141.812 30.4387C135.803 30.4457 131.159 25.7735 131.152 19.7089ZM134.341 19.876C134.362 20.1336 134.362 20.5862 134.431 21.0179C134.877 23.9423 136.402 26.0938 139.243 27.0478C142.007 27.9738 144.639 27.5561 146.839 25.5159C148.67 23.817 149.311 21.6167 149.192 19.1797C149.004 15.1412 145.627 11.3186 140.343 12.2029C136.694 12.8156 134.348 15.8445 134.341 19.876Z" fill="white"></path><path d="M44.1084 19.7508C44.0945 25.8015 39.4363 30.4597 33.4204 30.4388C27.481 30.411 22.8855 25.711 22.8925 19.6672C22.9064 13.6652 27.5506 9.0836 33.5875 9.11145C39.5686 9.13234 44.1223 13.7418 44.1084 19.7508ZM40.9264 19.6672C40.9264 19.528 40.9333 19.3887 40.9264 19.2494C40.8358 16.2345 38.8862 13.4493 36.1011 12.5093C33.3159 11.5694 30.0016 12.1055 27.8988 14.5495C26.3948 16.2972 25.9283 18.3373 26.0954 20.5793C26.4714 25.6692 31.5473 28.8443 36.296 26.9574C39.2135 25.8015 40.9403 23.079 40.9264 19.6672Z" fill="white"></path><path d="M117.038 30.2716C115.701 30.2716 114.517 30.2716 113.236 30.2716C111.196 27.5213 109.114 24.7222 106.969 21.8465C104.846 24.6804 102.764 27.4656 100.661 30.2716C99.4774 30.2716 98.2867 30.2716 96.9429 30.2716C99.6932 26.6857 102.381 23.1764 105.103 19.6184C102.534 16.2971 99.9648 12.9758 97.3258 9.56398C98.6836 9.56398 99.916 9.56398 101.176 9.56398C103.147 12.1472 105.124 14.7444 107.137 17.3903C109.128 14.7235 111.064 12.1263 112.992 9.54309C114.197 9.54309 115.36 9.54309 116.704 9.54309C114.099 12.934 111.565 16.2344 108.996 19.5766C111.655 23.0999 114.294 26.6231 117.038 30.2716Z" fill="white"></path><path d="M51.2385 29.9722C50.2358 29.9722 49.2958 29.9722 48.3558 29.9722C48.1817 29.7424 48.2653 29.4848 48.2653 29.255C48.2583 25.321 48.3349 21.38 48.2444 17.446C48.1191 12.2865 51.5518 9.06263 56.1543 8.53345C58.8628 8.22012 61.4809 8.54041 63.7995 10.1419C65.8605 11.5693 67.1417 13.5537 67.2044 16.0464C67.3227 20.6698 67.2392 25.3001 67.2392 29.9722C66.2922 29.9722 65.3592 29.9722 64.3705 29.9722C64.2521 29.7007 64.3078 29.3943 64.3078 29.1018C64.3009 25.0494 64.3009 21.004 64.3009 16.9516C64.3009 14.8975 63.5419 13.1986 61.7872 12.0845C59.1135 10.3856 54.2673 10.4622 52.1924 13.6024C51.51 14.6329 51.2385 15.7679 51.2385 16.9864C51.2385 21.004 51.2385 25.0286 51.2385 29.0461C51.2385 29.3177 51.2385 29.5962 51.2385 29.9722Z" fill="white"></path><path d="M175.965 30.3273C174.948 30.3273 174.043 30.3273 173.131 30.3273C172.922 30.0348 173.019 29.7215 173.019 29.4291C173.013 25.4881 173.013 21.554 173.013 17.613C173.013 15.8514 172.56 14.2778 171.244 13.0245C168.633 10.5457 163.64 10.8103 161.336 13.5537C160.417 14.6468 160.082 15.9419 160.082 17.3345C160.075 21.3521 160.082 25.3767 160.082 29.3943C160.082 29.6728 160.082 29.9443 160.082 30.2785C159.094 30.2785 158.147 30.2785 157.193 30.2785C157.04 30.007 157.116 29.7215 157.116 29.4569C157.109 25.5438 157.179 21.6376 157.095 17.7244C156.984 12.544 160.528 9.3063 165.221 8.82586C167.442 8.59608 169.601 8.85371 171.599 9.93296C174.113 11.2977 175.721 13.3935 175.867 16.2553C176.118 20.9204 175.93 25.5855 175.965 30.3273Z" fill="white"></path><path d="M19.3275 12.4536C18.6103 13.1081 17.9349 13.7278 17.1969 14.4032C15.3935 12.4605 13.0052 11.8269 10.3454 12.1611C8.50715 12.3979 6.98924 13.2891 5.81251 14.7165C3.41728 17.6061 3.63313 22.4871 6.1537 25.2235C8.41664 27.6884 13.5553 28.7537 17.3918 25.0982C18.0254 25.7527 18.6591 26.4142 19.2996 27.0757C17.4754 29.638 13.0887 31.0793 9.09204 30.1741C4.62186 29.1645 1.38411 25.4324 0.987226 20.8508C0.569452 16.0325 3.00647 11.7434 7.16332 9.97478C11.4107 8.17835 16.4379 9.17404 19.3275 12.4536Z" fill="white"></path><path d="M126.041 29.9583C125.01 29.9583 124.05 29.9583 123.096 29.9583C123.005 29.2272 122.984 10.6014 123.075 9.57788C124.043 9.57788 125.024 9.57788 126.048 9.57788C126.041 16.3667 126.041 23.1416 126.041 29.9583Z" fill="white"></path><path d="M142 1.84916C143.664 1.84916 145.335 1.8422 146.999 1.84916C148.155 1.85613 148.608 2.32264 148.608 3.47152C148.608 4.58558 148.113 5.10084 146.985 5.10084C143.657 5.1078 140.322 5.1078 136.993 5.10084C135.879 5.10084 135.385 4.57166 135.385 3.45759C135.385 2.31568 135.845 1.84916 137.007 1.84916C138.665 1.8422 140.336 1.84916 142 1.84916Z" fill="white"></path><path d="M124.558 5.14951C123.395 5.15647 122.434 4.16774 122.427 2.96316C122.427 1.77947 123.332 0.846438 124.502 0.82555C125.735 0.804661 126.661 1.70984 126.668 2.94923C126.668 4.18167 125.748 5.14951 124.558 5.14951Z" fill="white"></path><path d="M153.408 44.2064C153.089 43.8512 153.216 43.4322 153.353 43.0406C152.615 42.4303 152.369 41.7017 152.724 40.8819C153.244 39.707 154.309 39.6615 155.402 39.7799C155.657 39.4155 155.885 39.0967 156.104 38.7871C156.377 38.7233 156.523 38.8873 156.686 39.0421C156.659 39.452 156.24 39.6888 156.186 40.0804C156.96 41.2189 157.014 41.9112 156.45 42.6307C155.812 43.4504 154.828 43.2409 153.99 43.414C153.945 43.8694 154.173 43.9969 154.501 43.9787C154.947 43.9605 155.366 44.0425 155.776 44.1882C156.377 44.4068 156.741 44.8349 156.778 45.4815C156.823 46.1829 156.459 46.6656 155.839 46.9297C155.111 47.2485 154.355 47.2485 153.608 46.9753C152.36 46.5108 152.26 45.3358 153.408 44.2064ZM153.517 42.1024C154.273 42.74 155.093 42.8584 155.639 42.3848C156.076 42.0113 156.158 41.5377 155.876 41.0277C155.594 40.5085 154.801 40.2899 154.154 40.5176C153.526 40.7362 153.362 41.137 153.517 42.1024ZM153.499 45.1536C153.271 45.7457 153.435 46.1555 154.018 46.3741C154.637 46.6109 155.548 46.447 155.83 46.0371C156.122 45.6182 155.994 45.1263 155.484 44.8622C154.765 44.4979 154.091 44.6072 153.499 45.1536Z" fill="white"></path><path d="M108.277 44.7164C107.958 44.8712 107.749 44.8348 107.466 44.7893C107.466 43.8511 107.484 42.9494 107.457 42.0568C107.43 41.1551 107.639 40.3809 108.523 39.9802C109.379 39.5976 110.153 39.7889 110.8 40.4811C111.073 40.299 111.319 40.0804 111.601 39.9529C112.813 39.4155 114.097 40.2079 114.17 41.5559C114.224 42.6033 114.179 43.6507 114.179 44.6253C113.951 44.9168 113.742 44.8348 113.478 44.771C113.268 43.5779 113.532 42.3392 113.332 41.1369C112.995 40.6177 112.549 40.3536 111.947 40.5631C111.346 40.7726 111.201 41.2826 111.21 41.8747C111.228 42.8128 111.21 43.76 111.21 44.6617C111.009 44.8986 110.8 44.8439 110.599 44.7893C110.563 44.7255 110.49 44.6709 110.49 44.6162C110.481 43.6781 110.49 42.7308 110.463 41.7927C110.435 40.9456 110.007 40.4811 109.324 40.4993C108.678 40.5176 108.295 40.9456 108.277 41.7563C108.259 42.7308 108.277 43.7054 108.277 44.7164Z" fill="white"></path><path d="M102.165 41.6287C102.885 42.6853 103.568 43.6963 104.26 44.7073C103.951 44.9076 103.695 44.8075 103.395 44.8439C102.703 43.8238 102.01 42.8128 101.327 41.8109C100.99 41.7107 100.662 41.7471 100.298 41.7745C100.098 42.7308 100.316 43.7054 100.189 44.6435C99.9885 44.9532 99.7334 44.7892 99.4602 44.8348C99.4602 42.4393 99.4602 40.1077 99.4602 37.7942C99.7152 37.6303 99.9156 37.694 100.207 37.7578C100.207 38.7961 100.207 39.8344 100.207 40.8363C102.329 41.3008 103.167 40.4538 103.331 37.776C103.532 37.6485 103.732 37.6485 103.941 37.7487C104.278 39.6614 103.905 40.5266 102.165 41.6287Z" fill="white"></path><path d="M148.635 37.7397C149.063 37.685 149.345 37.6304 149.682 37.8398C150.466 40.0987 151.267 42.403 152.069 44.6983C151.786 44.9168 151.54 44.8167 151.276 44.8075C151.049 44.17 150.83 43.5597 150.593 42.9131C149.619 42.9131 148.644 42.9131 147.642 42.9131C147.433 43.5142 147.232 44.088 147.032 44.6709C146.795 44.9351 146.531 44.844 146.185 44.762C147.014 42.3848 147.824 40.0713 148.635 37.7397ZM149.236 38.7507C149.172 38.7598 149.109 38.7598 149.045 38.7689C148.671 39.871 148.298 40.973 147.906 42.1389C148.762 42.23 149.5 42.2117 150.356 42.148C149.974 40.973 149.609 39.8618 149.236 38.7507Z" fill="white"></path><path d="M88.6852 43.6508C88.9402 43.7145 88.9949 43.8511 89.0586 43.9878C89.1133 44.3248 88.1387 44.9168 87.401 44.9988C85.9528 45.1445 84.6868 44.0697 84.5957 42.6033C84.5046 41.0276 85.5885 39.8527 87.1095 39.8071C88.2845 39.7707 89.7691 40.8819 89.4321 42.7582C88.1296 42.7582 86.8089 42.7582 85.4518 42.7582C85.9072 44.3976 87.1642 44.7164 88.6852 43.6508ZM88.7307 42.0295C88.4211 40.8819 87.8928 40.4356 87.0002 40.5085C86.1349 40.5722 85.6613 41.0458 85.5156 42.0295C86.563 42.0295 87.6013 42.0295 88.7307 42.0295Z" fill="white"></path><path d="M95.3525 44.7346C94.8788 45.0078 94.6876 44.7073 94.5418 44.352C92.9206 45.2446 91.5908 45.1262 90.762 44.015C90.0333 43.0405 90.1153 41.4648 90.935 40.5904C91.8732 39.5885 93.2303 39.5521 94.5601 40.4902C94.6876 40.1441 94.8151 39.7889 95.3616 40.053C95.3525 41.6014 95.3525 43.168 95.3525 44.7346ZM94.6329 42.3938C94.6329 41.2917 93.886 40.4993 92.8568 40.4993C91.8367 40.4993 91.0625 41.3099 91.0534 42.3847C91.0534 43.4777 91.7912 44.261 92.8386 44.2701C93.9043 44.2701 94.6329 43.505 94.6329 42.3938Z" fill="white"></path><path d="M171.87 42.7309C172.261 44.3977 173.509 44.7074 175.067 43.6417C175.312 43.6782 175.422 43.8421 175.467 44.0698C174.429 45.3176 172.835 45.1446 171.952 44.4615C170.995 43.7237 170.667 42.3666 171.196 41.2281C171.687 40.1715 172.972 39.5704 174.119 39.8619C175.303 40.1624 175.932 41.1552 175.859 42.7309C174.538 42.7309 173.208 42.7309 171.87 42.7309ZM175.085 42.0205C174.775 40.8729 174.219 40.4266 173.345 40.4994C172.507 40.5723 172.043 41.055 171.897 42.0205C172.935 42.0205 173.974 42.0205 175.085 42.0205Z" fill="white"></path><path d="M119.544 40.4994C119.762 40.0986 119.762 40.0986 120.318 39.9984C120.318 41.5832 120.318 43.1498 120.318 44.7529C119.79 45.0443 119.653 44.7346 119.635 44.1608C118.961 44.7529 118.25 45.1263 117.367 44.9714C116.738 44.8621 116.201 44.5889 115.8 44.088C115.035 43.1316 115.099 41.4648 115.928 40.5813C116.866 39.5886 118.214 39.5612 119.544 40.4994ZM119.653 42.3756C119.644 41.3009 118.851 40.4903 117.822 40.4994C116.811 40.5085 116.01 41.3464 116.019 42.403C116.028 43.4686 116.811 44.2701 117.859 44.2701C118.897 44.261 119.662 43.4595 119.653 42.3756Z" fill="white"></path><path d="M143.407 42.3574C143.425 43.8239 142.286 44.9988 140.838 45.0079C139.39 45.017 138.224 43.8421 138.224 42.3939C138.233 40.973 139.335 39.8436 140.747 39.8163C142.223 39.7707 143.389 40.891 143.407 42.3574ZM139.053 42.3848C139.053 43.5142 139.782 44.2702 140.847 44.261C141.867 44.2428 142.569 43.5142 142.587 42.4394C142.605 41.3191 141.886 40.5176 140.838 40.4994C139.809 40.4812 139.053 41.2736 139.053 42.3848Z" fill="white"></path><path d="M157.807 40.0895C158.107 39.8892 158.299 39.9529 158.59 40.0531C158.59 41.0277 158.563 42.0022 158.599 42.9677C158.636 43.7874 159 44.17 159.665 44.2428C160.475 44.3248 161.004 43.8603 161.031 42.9495C161.067 41.9749 161.04 41.0095 161.04 40.0895C161.332 39.9074 161.523 39.9438 161.796 40.0713C161.796 41.0641 161.823 42.0751 161.787 43.0861C161.751 44.2064 160.94 44.9897 159.838 44.9988C158.754 45.017 157.871 44.2428 157.816 43.1499C157.77 42.1389 157.807 41.1279 157.807 40.0895Z" fill="white"></path><path d="M83.5028 44.7256C83.2477 44.8713 83.0747 44.8349 82.847 44.7985C82.6466 44.3249 82.7741 43.8239 82.7559 43.3321C82.7377 42.8949 82.765 42.4577 82.7468 42.0296C82.7104 40.9913 82.2641 40.4721 81.4626 40.4994C80.6975 40.5268 80.2876 41.0277 80.2603 42.0023C80.2421 42.5852 80.2603 43.159 80.2603 43.7419C80.2603 44.0607 80.2603 44.3886 80.2603 44.6254C80.0326 44.9533 79.814 44.7711 79.5407 44.8804C79.5407 43.6417 79.4588 42.4941 79.5681 41.3556C79.6591 40.3628 80.5608 39.7617 81.6174 39.8072C82.6557 39.8437 83.4572 40.5359 83.5028 41.5378C83.5483 42.6125 83.5028 43.6964 83.5028 44.7256Z" fill="white"></path><path d="M137.842 44.1426C137.996 44.4341 137.96 44.598 137.869 44.7984C136.658 44.7984 135.437 44.7984 134.162 44.7984C134.162 42.4576 134.162 40.1624 134.162 37.8398C134.335 37.6121 134.572 37.6667 134.918 37.776C134.918 39.8618 134.918 41.984 134.918 44.1426C135.965 44.1426 136.894 44.1426 137.842 44.1426Z" fill="white"></path><path d="M73.3836 44.1336C74.4402 44.1336 75.3692 44.1336 76.1889 44.1336C76.5077 44.3066 76.4621 44.4888 76.4166 44.7529C75.2052 44.7529 73.9665 44.7529 72.6641 44.7529C72.6641 42.4577 72.6641 40.1351 72.6641 37.8034C72.8462 37.5939 73.0648 37.7488 73.3927 37.6759C73.3836 39.8527 73.3836 41.9658 73.3836 44.1336Z" fill="white"></path><path d="M124.079 44.2883C124.061 44.5069 124.052 44.6436 124.034 44.7802C122.54 44.9806 121.875 44.4614 121.857 43.0405C121.839 41.2827 121.848 39.5157 121.848 37.8125C122.112 37.6667 122.285 37.6758 122.595 37.8034C122.595 38.9601 122.595 40.1715 122.595 41.3828C122.595 41.7836 122.595 42.1753 122.595 42.576C122.613 43.8603 122.759 44.0333 124.079 44.2883Z" fill="white"></path><path d="M170.613 40.381C169.247 40.6815 169.174 40.7817 169.165 42.2026C169.165 42.995 169.165 43.7874 169.155 44.5889C169.155 44.6527 169.101 44.7164 169.074 44.7893C168.91 44.8804 168.737 44.8713 168.445 44.762C168.4 43.5233 168.299 42.239 168.5 40.973C168.636 40.1533 169.511 39.6614 170.321 39.8345C170.604 39.88 170.64 40.0622 170.613 40.381Z" fill="white"></path><path d="M165.448 44.7437C165.448 43.6143 165.403 42.4667 165.458 41.3191C165.512 40.2079 166.159 39.7798 167.498 39.8709C167.671 40.0075 167.616 40.1806 167.58 40.4356C167.225 40.554 166.733 40.4356 166.414 40.8181C165.94 42.0568 166.314 43.3684 166.132 44.6709C165.986 44.9259 165.758 44.853 165.448 44.7437Z" fill="white"></path><path d="M105.362 40.0258C105.581 39.9347 105.754 39.9347 105.982 40.0622C105.982 41.6015 105.982 43.1772 105.982 44.7347C105.79 44.8622 105.608 44.8439 105.362 44.7893C105.362 43.2409 105.362 41.6652 105.362 40.0258Z" fill="white"></path><path d="M163.29 39.9893C163.545 39.9802 163.727 39.9074 163.936 40.1077C163.936 41.6015 163.936 43.1499 163.936 44.7073C163.782 44.9168 163.563 44.8166 163.29 44.844C163.29 43.2227 163.29 41.647 163.29 39.9893Z" fill="white"></path><path d="M78.0014 44.7712C77.7737 44.8531 77.6097 44.8805 77.3729 44.7347C77.3729 43.2319 77.3729 41.6835 77.3729 40.0805C77.4822 39.8983 77.7099 39.9621 78.0014 39.9803C78.0014 41.556 78.0014 43.1317 78.0014 44.7712Z" fill="white"></path><path d="M130.182 41.0004C130.309 41.1461 130.282 41.2918 130.255 41.5104C129.207 41.5104 128.151 41.5104 127.021 41.5104C126.885 41.4376 126.921 41.2645 126.967 41.0004C127.996 41.0004 129.061 41.0004 130.182 41.0004Z" fill="white"></path><path d="M77.9559 37.5393C78.3111 37.3844 78.557 37.4482 78.7939 37.4482C78.8667 37.685 78.721 37.8216 78.6117 37.9309C78.1836 38.3135 78.0834 39.1878 77.0815 38.9237C77.3912 38.4228 77.6736 37.9856 77.9559 37.5393Z" fill="white"></path><path d="M163.053 38.5593C163.417 37.9491 163.754 37.9126 164.137 38.5411C163.773 39.2151 163.445 39.206 163.053 38.5593Z" fill="white"></path><path d="M106.191 38.6049C105.963 39.0421 105.681 39.206 105.326 38.8872C105.107 38.696 105.153 38.3863 105.362 38.2223C105.745 37.94 106.018 38.1131 106.191 38.6049Z" fill="white"></path><path d="M92.1872 13.1011H72.9905C72.5936 13.1011 72.2733 12.7808 72.2733 12.384V10.0862C72.2733 9.68931 72.5936 9.36902 72.9905 9.36902H92.1872C92.5841 9.36902 92.9044 9.68931 92.9044 10.0862V12.377C92.9044 12.7739 92.5841 13.1011 92.1872 13.1011Z" fill="#1CD7B7"></path><path d="M92.1872 30.5084H72.9905C72.5936 30.5084 72.2733 30.1881 72.2733 29.7912V27.4934C72.2733 27.0965 72.5936 26.7762 72.9905 26.7762H92.1872C92.5841 26.7762 92.9044 27.0965 92.9044 27.4934V29.7842C92.9044 30.1881 92.5841 30.5084 92.1872 30.5084Z" fill="#1CD7B7"></path><path d="M80.587 21.6098H72.9835C72.5866 21.6098 72.2664 21.2895 72.2664 20.8926V18.9917C72.2664 18.5948 72.5866 18.2745 72.9835 18.2745H80.587C80.9839 18.2745 81.3042 18.5948 81.3042 18.9917V20.8926C81.3042 21.2825 80.9839 21.6098 80.587 21.6098Z" fill="#1CD7B7"></path><path d="M92.1803 21.6098H84.5768C84.1799 21.6098 83.8596 21.2895 83.8596 20.8926V18.9917C83.8596 18.5948 84.1799 18.2745 84.5768 18.2745H92.1803C92.5772 18.2745 92.8975 18.5948 92.8975 18.9917V20.8926C92.8975 21.2825 92.5772 21.6098 92.1803 21.6098Z" fill="#1CD7B7"></path></svg>